<?xml version="1.0" encoding="utf-8"?>
<!-- Generator: Adobe Illustrator 23.0.0, SVG Export Plug-In . SVG Version: 6.00 Build 0)  -->
<svg version="1.1" id="Layer_1" xmlns="http://www.w3.org/2000/svg" xmlns:xlink="http://www.w3.org/1999/xlink" x="0px" y="0px"
	 viewBox="0 0 1185.9 495.9" style="enable-background:new 0 0 1185.9 495.9;" xml:space="preserve">
<style type="text/css">
	.st0{fill:#F1A399;}
	.st1{fill:#8FBDD7;}
	.st2{fill:#D1AFD2;}
	.st3{fill:#EBD96D;}
	.st4{fill:#9CD4CB;}
	.st5{fill:#6E727A;}
	.st6{clip-path:url(#SVGID_2_);fill:#8FBDD7;}
	.st7{fill:url(#SVGID_4_);}
	.st8{clip-path:url(#SVGID_6_);fill:url(#SVGID_8_);}
	.st9{clip-path:url(#SVGID_11_);fill:#F1A399;}
	.st10{fill:url(#SVGID_12_);}
	.st11{clip-path:url(#SVGID_14_);fill:url(#SVGID_15_);}
</style>
<g>
	<g>
		<path class="st0" d="M593,75.8c15.6,0,30.1,6.2,40.5,16.8V82.5c0-44.7-36.3-81-81-81v91.1C562.8,82.4,577.2,75.8,593,75.8"/>
		<path class="st1" d="M613.9,178.4c-17.3,14-39.1,21.7-61.4,21.7v43.9c0,16.8,13.6,30.4,30.4,30.4h50.5V156.9
			C628.1,165,621.4,172.3,613.9,178.4"/>
		<path class="st2" d="M628,112.8c-1.4-2.4-3.1-4.7-5-6.8c-7.4-8.3-18.1-13.5-30.2-13.5c-22.4,0-40.5,18.1-40.5,40.5v8.3v8.3v17.1
			v8.3v8.3c32.7,0,60.8-19.4,73.6-47.3c1.2-2.5,2.2-5.1,3.1-7.7c0.9-2.7,1.6-5.3,2.3-8C630.6,117.7,629.4,115.3,628,112.8"/>
		<path class="st3" d="M451.6,31.9V153c0,0,0,1,0.1,2.7c0,0.2,0,0.5,0,0.6c0.9,11,7.2,46.2,46.6,48.8h0.1c1.4,0,2.2-1.6,1.4-2.7
			c-4-5-7.1-19.1,2.5-19.1h30.2V1.5H482C465.1,1.5,451.6,15.1,451.6,31.9"/>
		<path class="st4" d="M686.2,293.3c-0.9,1.2,0,2.7,1.4,2.7h0.1c39.4-2.7,45.7-37.8,46.6-48.8c0-0.2,0-0.5,0-0.7
			c0.1-1.6,0.1-2.7,0.1-2.7v-111c0-22.1-17.7-40.1-39.8-40.5c-0.2,0-0.5,0-0.7,0c-22.3,0-40.6,19.1-40.6,41.6v140.3h30.2
			C693.1,274.4,690.2,288.4,686.2,293.3"/>
	</g>
	<g>
		<path class="st5" d="M951.1,479.5c0.1-2.7-0.5-5.4-1.7-8L888.7,352c-2.9-5.7-8.4-9.1-14.8-9.1l0,0l0,0c-6.4,0-11.9,3.5-14.8,9.1
			l-60.7,119.5c-1.3,2.5-1.8,5.3-1.7,8c-0.1,3.1,0.7,6.4,2.5,9.1c3,5,8.3,7.9,14.1,7.9c6.2,0,11.9-3.5,14.7-9l9.4-18.5h73.2
			l9.4,18.5c2.8,5.5,8.4,9,14.7,9c5.8,0,11.1-2.9,14.1-7.9C950.4,485.7,951.2,482.6,951.1,479.5z M854.1,435.8l19.8-38.7l19.8,38.7
			H854.1z"/>
		<path class="st5" d="M578.5,395.2c0-28.3-23.1-51.4-51.4-51.4h-57.6c-3.5,0-6.7,1-9.6,3c-1.6,1.2-3,2.5-4.2,4.3
			c-1.3,1.8-2.1,3.8-2.4,5.9c-0.2,1-0.3,2.2-0.3,3.4v119.5c0,9.1,7.4,16.5,16.5,16.5c9.1,0,16.5-7.4,16.5-16.5v-33.2h29.5l33.4,43.2
			c3.1,4,8,6.5,13.1,6.5c3.7,0,7.2-1.2,10.1-3.5c3.5-2.7,5.7-6.6,6.2-11s-0.6-8.7-3.4-12.1l-22.9-29.6
			C568.3,431,578.5,413.7,578.5,395.2 M545.5,395.2c0,10.2-8.2,18.4-18.4,18.4h-3.5h-0.2l0,0H486v-36.9h41.2
			C537.3,376.7,545.5,385,545.5,395.2"/>
		<path class="st5" d="M1045.8,343.7H945.6c-9.1,0-16.5,7.4-16.5,16.5s7.4,16.5,16.5,16.5h33.6v103c0,9.1,7.4,16.5,16.5,16.5
			c9.1,0,16.5-7.4,16.5-16.5v-103h33.6c9.1,0,16.5-7.4,16.5-16.5C1062.3,351.1,1054.9,343.7,1045.8,343.7"/>
		<path class="st5" d="M257.6,376.8c9.1,0,16.5-7.4,16.5-16.5s-7.4-16.5-16.5-16.5H178c-2.5,0-5,0.6-7.2,1.6
			c-0.7,0.3-1.4,0.7-2.1,1.2c-2.7,1.8-4.7,4.3-6,7.3c-0.8,2.1-1.3,4.2-1.3,6.5v119.5c0,9.1,7.4,16.5,16.5,16.5h79.6
			c9.1,0,16.5-7.4,16.5-16.5c0-9.1-7.4-16.5-16.5-16.5h-63.1v-26.7H246c9.1,0,16.5-7.4,16.5-16.5s-7.4-16.5-16.5-16.5h-51.4v-26.7
			L257.6,376.8L257.6,376.8z"/>
		<path class="st5" d="M1169.4,463.3h-63.1v-26.7h51.4c9.1,0,16.5-7.4,16.5-16.5c0-9.1-7.4-16.5-16.5-16.5h-51.4v-26.7h63.1
			c9.1,0,16.5-7.4,16.5-16.5s-7.4-16.5-16.5-16.5h-79.6c-2.5,0-4.9,0.6-7.2,1.6c-0.7,0.3-1.4,0.7-2.1,1.2c-2.7,1.8-4.7,4.3-6,7.3
			c-0.8,2.1-1.3,4.2-1.3,6.5v119.5c0,9.1,7.4,16.5,16.5,16.5h79.6c9.1,0,16.5-7.4,16.5-16.5C1185.9,470.7,1178.5,463.3,1169.4,463.3
			"/>
		<path class="st5" d="M442.4,479.5c0.1-2.7-0.5-5.4-1.7-8L379.9,352c-2.9-5.7-8.4-9.1-14.8-9.1l0,0l0,0c-6.4,0-11.9,3.5-14.8,9.1
			l-60.7,119.5c-1.3,2.5-1.8,5.3-1.7,8c-0.1,3.1,0.7,6.4,2.5,9.1c3,5,8.3,7.9,14.1,7.9c6.2,0,11.9-3.5,14.7-9l9.4-18.5h73.2
			l9.4,18.5c2.8,5.5,8.4,9,14.7,9c5.8,0,11.1-2.9,14.1-7.9C441.7,485.7,442.5,482.6,442.4,479.5z M345.4,435.8l19.8-38.7l19.8,38.7
			H345.4z"/>
		<g>
			<path class="st4" d="M735.3,342.8c-12.1,0-23.2,4.5-31.8,11.9c10.3,8.9,16.9,22.1,16.9,36.8c0-8.2,6.7-14.9,14.9-14.9
				c8.2,0,14.9,6.7,14.9,14.9v88.1c0,9.4,7.5,16.9,16.9,16.9s16.9-7.5,16.9-16.9v-88.1C784,364.7,762.1,342.8,735.3,342.8"/>
			<g>
				<g>
					<g>
						<defs>
							<path id="SVGID_1_" d="M622.9,391.5v88.1c0,9.4,7.5,16.9,16.9,16.9s16.9-7.5,16.9-16.9v-88.1c0-8.2,6.7-14.9,14.9-14.9
								c8.2,0,14.9,6.7,14.9,14.9v43.1c0,9.4,7.5,16.9,16.9,16.9s16.9-7.5,16.9-16.9v-43.1c0-14.7-6.6-27.9-16.9-36.8
								c-8.6-7.4-19.7-11.9-31.8-11.9C644.8,342.8,622.9,364.7,622.9,391.5"/>
						</defs>
						<clipPath id="SVGID_2_">
							<use xlink:href="#SVGID_1_"  style="overflow:visible;"/>
						</clipPath>
						<rect x="622.9" y="342.8" class="st6" width="97.3" height="153.6"/>
					</g>
				</g>
			</g>
			<g>
				<g>
					
						<linearGradient id="SVGID_4_" gradientUnits="userSpaceOnUse" x1="634.5212" y1="-132.0358" x2="765.8556" y2="-9.0139" gradientTransform="matrix(1 0 0 1 0 526)">
						<stop  offset="0" style="stop-color:#8FBDD7"/>
						<stop  offset="1" style="stop-color:#60ABCD"/>
					</linearGradient>
					<path id="SVGID_3_" class="st7" d="M622.9,391.5v88.1c0,9.4,7.5,16.9,16.9,16.9s16.9-7.5,16.9-16.9v-88.1
						c0-8.2,6.7-14.9,14.9-14.9c8.2,0,14.9,6.7,14.9,14.9v43.1c0,9.4,7.5,16.9,16.9,16.9s16.9-7.5,16.9-16.9v-43.1
						c0-14.7-6.6-27.9-16.9-36.8c-8.6-7.4-19.7-11.9-31.8-11.9C644.8,342.8,622.9,364.7,622.9,391.5"/>
				</g>
				<g>
					<g>
						<defs>
							<path id="SVGID_5_" d="M622.9,391.5v88.1c0,9.4,7.5,16.9,16.9,16.9s16.9-7.5,16.9-16.9v-88.1c0-8.2,6.7-14.9,14.9-14.9
								c8.2,0,14.9,6.7,14.9,14.9v43.1c0,9.4,7.5,16.9,16.9,16.9s16.9-7.5,16.9-16.9v-43.1c0-14.7-6.6-27.9-16.9-36.8
								c-8.6-7.4-19.7-11.9-31.8-11.9C644.8,342.8,622.9,364.7,622.9,391.5"/>
						</defs>
						<clipPath id="SVGID_6_">
							<use xlink:href="#SVGID_5_"  style="overflow:visible;"/>
						</clipPath>
						
							<linearGradient id="SVGID_8_" gradientUnits="userSpaceOnUse" x1="639.0449" y1="-136.865" x2="770.3793" y2="-13.8431" gradientTransform="matrix(1 0 0 1 0 526)">
							<stop  offset="0" style="stop-color:#8FBDD7"/>
							<stop  offset="1" style="stop-color:#60ABCD"/>
						</linearGradient>
						<rect x="622.9" y="342.8" class="st8" width="97.3" height="153.6"/>
					</g>
				</g>
			</g>
		</g>
		<g>
			<path class="st3" d="M70,342.6H17c-9.4,0-16.9,7.5-16.9,16.9v119.9c0,9.4,7.5,16.9,16.9,16.9H70c-9.4,0-16.9-7.5-16.9-16.9
				c0-9.4,7.5-16.9,16.9-16.9H33.8v-86.1H70c9.4,0,16.9-7.5,16.9-16.9C86.9,350.1,79.4,342.6,70,342.6"/>
			<g>
				<g>
					<path id="SVGID_7_" class="st0" d="M86.9,359.5c0,9.4-7.5,16.9-16.9,16.9c23.7,0,43.1,19.3,43.1,43.1
						c0,23.7-19.3,43.1-43.1,43.1c-9.4,0-16.9,7.5-16.9,16.9c0,9.4,7.5,16.9,16.9,16.9c42.3,0,76.8-34.4,76.8-76.8
						s-34.4-76.8-76.8-76.8C79.4,342.6,86.9,350.1,86.9,359.5"/>
				</g>
				<g>
					<g>
						<defs>
							<path id="SVGID_10_" d="M86.9,359.5c0,9.4-7.5,16.9-16.9,16.9c23.7,0,43.1,19.3,43.1,43.1c0,23.7-19.3,43.1-43.1,43.1
								c-9.4,0-16.9,7.5-16.9,16.9c0,9.4,7.5,16.9,16.9,16.9c42.3,0,76.8-34.4,76.8-76.8s-34.4-76.8-76.8-76.8
								C79.4,342.6,86.9,350.1,86.9,359.5"/>
						</defs>
						<clipPath id="SVGID_11_">
							<use xlink:href="#SVGID_10_"  style="overflow:visible;"/>
						</clipPath>
						<rect x="53.1" y="342.6" class="st9" width="93.6" height="153.6"/>
					</g>
				</g>
			</g>
			<g>
				<g>
					
						<linearGradient id="SVGID_12_" gradientUnits="userSpaceOnUse" x1="99.9652" y1="-44.501" x2="99.9652" y2="-210.7469" gradientTransform="matrix(1 0 0 1 0 526)">
						<stop  offset="0" style="stop-color:#F1A399"/>
						<stop  offset="1" style="stop-color:#EF877F"/>
					</linearGradient>
					<path id="SVGID_9_" class="st10" d="M86.9,359.5c0,9.4-7.5,16.9-16.9,16.9c23.7,0,43.1,19.3,43.1,43.1
						c0,23.7-19.3,43.1-43.1,43.1c-9.4,0-16.9,7.5-16.9,16.9c0,9.4,7.5,16.9,16.9,16.9c42.3,0,76.8-34.4,76.8-76.8
						s-34.4-76.8-76.8-76.8C79.4,342.6,86.9,350.1,86.9,359.5"/>
				</g>
				<g>
					<g>
						<defs>
							<path id="SVGID_13_" d="M86.9,359.5c0,9.4-7.5,16.9-16.9,16.9c23.7,0,43.1,19.3,43.1,43.1c0,23.7-19.3,43.1-43.1,43.1
								c-9.4,0-16.9,7.5-16.9,16.9c0,9.4,7.5,16.9,16.9,16.9c42.3,0,76.8-34.4,76.8-76.8s-34.4-76.8-76.8-76.8
								C79.4,342.6,86.9,350.1,86.9,359.5"/>
						</defs>
						<clipPath id="SVGID_14_">
							<use xlink:href="#SVGID_13_"  style="overflow:visible;"/>
						</clipPath>
						
							<linearGradient id="SVGID_15_" gradientUnits="userSpaceOnUse" x1="99.9652" y1="-44.501" x2="99.9652" y2="-210.7469" gradientTransform="matrix(1 0 0 1 0 526)">
							<stop  offset="0" style="stop-color:#F1A399"/>
							<stop  offset="1" style="stop-color:#EF877F"/>
						</linearGradient>
						<rect x="53.1" y="342.6" class="st11" width="93.6" height="153.6"/>
					</g>
				</g>
			</g>
		</g>
	</g>
</g>
</svg>
