<?xml version="1.0" encoding="utf-8"?>
<!-- Generator: Adobe Illustrator 22.1.0, SVG Export Plug-In . SVG Version: 6.00 Build 0)  -->
<svg version="1.1" id="Layer_1" xmlns="http://www.w3.org/2000/svg" xmlns:xlink="http://www.w3.org/1999/xlink" x="0px" y="0px"
	 viewBox="0 0 1025.8 133" style="enable-background:new 0 0 1025.8 133;" xml:space="preserve">
<style type="text/css">
	.st0{fill:#6E727A;}
	.st1{fill:#9CD4CB;}
	.st2{clip-path:url(#SVGID_2_);fill:#8FBDD7;}
	.st3{fill:url(#SVGID_4_);}
	.st4{clip-path:url(#SVGID_6_);fill:url(#SVGID_8_);}
	.st5{fill:#EBD96D;}
	.st6{fill:#F1A399;}
	.st7{clip-path:url(#SVGID_11_);fill:#F1A399;}
	.st8{fill:url(#SVGID_12_);}
	.st9{clip-path:url(#SVGID_14_);fill:url(#SVGID_15_);}
</style>
<g>
	<path class="st0" d="M822.7,118.3c0.1-2.3-0.4-4.7-1.5-6.9L768.7,8c-2.5-4.9-7.3-7.9-12.8-7.9c0,0,0,0,0,0c0,0,0,0,0,0
		c-5.5,0-10.3,3-12.8,7.9l-52.5,103.4c-1.1,2.2-1.6,4.6-1.5,6.9c-0.1,2.7,0.6,5.5,2.2,7.9c2.6,4.3,7.2,6.8,12.2,6.8
		c5.4,0,10.3-3,12.7-7.8l8.1-16h63.3l8.1,16c2.4,4.8,7.3,7.8,12.7,7.8c5,0,9.6-2.5,12.2-6.8C822.1,123.8,822.8,121.1,822.7,118.3z
		 M738.8,80.6l17.1-33.5l17.1,33.5H738.8z"/>
	<path class="st0" d="M500.4,45.5c0-24.5-20-44.5-44.5-44.5h-49.8c-3,0-5.8,0.9-8.3,2.6c-1.4,1-2.6,2.2-3.6,3.7
		c-1.1,1.6-1.8,3.3-2.1,5.1c-0.2,0.9-0.3,1.9-0.3,2.9v103.4c0,7.9,6.4,14.3,14.3,14.3s14.3-6.4,14.3-14.3V90h25.5l28.9,37.4
		c2.7,3.5,6.9,5.6,11.3,5.6c3.2,0,6.2-1,8.7-3c3-2.3,4.9-5.7,5.4-9.5s-0.5-7.5-2.9-10.5l-19.8-25.6
		C491.5,76.5,500.4,61.5,500.4,45.5 M471.8,45.5c0,8.8-7.1,15.9-15.9,15.9h-3h-0.2l0,0h-32.4V29.5h35.6
		C464.7,29.5,471.8,36.7,471.8,45.5"/>
	<path class="st0" d="M904.6,1h-86.7c-7.9,0-14.3,6.4-14.3,14.3s6.4,14.3,14.3,14.3H847v89.1c0,7.9,6.4,14.3,14.3,14.3
		c7.9,0,14.3-6.4,14.3-14.3V29.6h29.1c7.9,0,14.3-6.4,14.3-14.3C918.9,7.4,912.5,1,904.6,1"/>
	<path class="st0" d="M222.8,29.6c7.9,0,14.3-6.4,14.3-14.3S230.7,1,222.8,1h-68.9c-2.2,0-4.3,0.5-6.2,1.4c-0.6,0.3-1.2,0.6-1.8,1
		c-2.3,1.6-4.1,3.7-5.2,6.3c-0.7,1.8-1.1,3.6-1.1,5.6v103.4c0,7.9,6.4,14.3,14.3,14.3h68.9c7.9,0,14.3-6.4,14.3-14.3
		c0-7.9-6.4-14.3-14.3-14.3h-54.6V81.3h44.5c7.9,0,14.3-6.4,14.3-14.3s-6.4-14.3-14.3-14.3h-44.5V29.6L222.8,29.6L222.8,29.6z"/>
	<path class="st0" d="M1011.5,104.4h-54.6V81.3h44.5c7.9,0,14.3-6.4,14.3-14.3s-6.4-14.3-14.3-14.3h-44.5V29.6h54.6
		c7.9,0,14.3-6.4,14.3-14.3S1019.4,1,1011.5,1h-68.9c-2.2,0-4.2,0.5-6.2,1.4c-0.6,0.3-1.2,0.6-1.8,1c-2.3,1.6-4.1,3.7-5.2,6.3
		c-0.7,1.8-1.1,3.6-1.1,5.6v103.4c0,7.9,6.4,14.3,14.3,14.3h68.9c7.9,0,14.3-6.4,14.3-14.3C1025.8,110.8,1019.4,104.4,1011.5,104.4"
		/>
	<path class="st0" d="M382.6,118.3c0.1-2.3-0.4-4.7-1.5-6.9L328.6,8c-2.5-4.9-7.3-7.9-12.8-7.9c0,0,0,0,0,0c0,0,0,0,0,0
		c-5.5,0-10.3,3-12.8,7.9l-52.5,103.4c-1.1,2.2-1.6,4.6-1.5,6.9c-0.1,2.7,0.6,5.5,2.2,7.9c2.6,4.3,7.2,6.8,12.2,6.8
		c5.4,0,10.3-3,12.7-7.8l8.1-16h63.3l8.1,16c2.4,4.8,7.3,7.8,12.7,7.8c5,0,9.6-2.5,12.2-6.8C382,123.8,382.7,121.1,382.6,118.3z
		 M298.7,80.6l17.1-33.5l17.1,33.5H298.7z"/>
	<g>
		<path class="st1" d="M636,0.1c-10.5,0-20.1,3.9-27.5,10.3c8.9,7.7,14.6,19.1,14.6,31.8c0-7.1,5.8-12.9,12.9-12.9
			c7.1,0,12.9,5.8,12.9,12.9v76.2c0,8.1,6.5,14.6,14.6,14.6s14.6-6.5,14.6-14.6V42.2C678.1,19,659.2,0.1,636,0.1"/>
		<g>
			<g>
				<defs>
					<path id="SVGID_1_" d="M538.8,42.2v76.2c0,8.1,6.5,14.6,14.6,14.6s14.6-6.5,14.6-14.6V42.2c0-7.1,5.8-12.9,12.9-12.9
						c7.1,0,12.9,5.8,12.9,12.9v37.3c0,8.1,6.5,14.6,14.6,14.6S623,87.6,623,79.5V42.2c0-12.7-5.7-24.1-14.6-31.8
						C601,4,591.4,0.1,580.9,0.1C557.7,0.1,538.8,19,538.8,42.2"/>
				</defs>
				<clipPath id="SVGID_2_">
					<use xlink:href="#SVGID_1_"  style="overflow:visible;"/>
				</clipPath>
				<rect x="538.8" y="0.1" class="st2" width="84.2" height="132.9"/>
			</g>
		</g>
		<g>
			<g>
				
					<linearGradient id="SVGID_4_" gradientUnits="userSpaceOnUse" x1="548.843" y1="581.6351" x2="662.4537" y2="475.2149" gradientTransform="matrix(1 0 0 -1 0 626)">
					<stop  offset="0" style="stop-color:#8FBDD7"/>
					<stop  offset="1" style="stop-color:#60ABCD"/>
				</linearGradient>
				<path id="SVGID_3_" class="st3" d="M538.8,42.2v76.2c0,8.1,6.5,14.6,14.6,14.6s14.6-6.5,14.6-14.6V42.2
					c0-7.1,5.8-12.9,12.9-12.9c7.1,0,12.9,5.8,12.9,12.9v37.3c0,8.1,6.5,14.6,14.6,14.6S623,87.6,623,79.5V42.2
					c0-12.7-5.7-24.1-14.6-31.8C601,4,591.4,0.1,580.9,0.1C557.7,0.1,538.8,19,538.8,42.2"/>
			</g>
			<g>
				<defs>
					<path id="SVGID_5_" d="M538.8,42.2v76.2c0,8.1,6.5,14.6,14.6,14.6s14.6-6.5,14.6-14.6V42.2c0-7.1,5.8-12.9,12.9-12.9
						c7.1,0,12.9,5.8,12.9,12.9v37.3c0,8.1,6.5,14.6,14.6,14.6S623,87.6,623,79.5V42.2c0-12.7-5.7-24.1-14.6-31.8
						C601,4,591.4,0.1,580.9,0.1C557.7,0.1,538.8,19,538.8,42.2"/>
				</defs>
				<clipPath id="SVGID_6_">
					<use xlink:href="#SVGID_5_"  style="overflow:visible;"/>
				</clipPath>
				
					<linearGradient id="SVGID_8_" gradientUnits="userSpaceOnUse" x1="552.7561" y1="585.8126" x2="666.3669" y2="479.3924" gradientTransform="matrix(1 0 0 -1 0 626)">
					<stop  offset="0" style="stop-color:#8FBDD7"/>
					<stop  offset="1" style="stop-color:#60ABCD"/>
				</linearGradient>
				<rect x="538.8" y="0.1" class="st4" width="84.2" height="132.9"/>
			</g>
		</g>
	</g>
	<g>
		<path class="st5" d="M60.5,0H14.6C6.5,0,0,6.5,0,14.6v103.7c0,8.1,6.5,14.6,14.6,14.6h45.9c-8.1,0-14.6-6.5-14.6-14.6
			s6.5-14.6,14.6-14.6H29.2V29.2h31.3c8.1,0,14.6-6.5,14.6-14.6C75.1,6.5,68.6,0,60.5,0"/>
		<g>
			<g>
				<path id="SVGID_7_" class="st6" d="M75.1,14.6c0,8.1-6.5,14.6-14.6,14.6c20.5,0,37.3,16.7,37.3,37.3c0,20.5-16.7,37.3-37.3,37.3
					c-8.1,0-14.6,6.5-14.6,14.6S52.4,133,60.5,133c36.6,0,66.4-29.8,66.4-66.4S97.1,0.2,60.5,0.2C68.6,0,75.1,6.5,75.1,14.6"/>
			</g>
			<g>
				<defs>
					<path id="SVGID_10_" d="M75.1,14.6c0,8.1-6.5,14.6-14.6,14.6c20.5,0,37.3,16.7,37.3,37.3c0,20.5-16.7,37.3-37.3,37.3
						c-8.1,0-14.6,6.5-14.6,14.6S52.4,133,60.5,133c36.6,0,66.4-29.8,66.4-66.4S97.1,0.2,60.5,0.2C68.6,0,75.1,6.5,75.1,14.6"/>
				</defs>
				<clipPath id="SVGID_11_">
					<use xlink:href="#SVGID_10_"  style="overflow:visible;"/>
				</clipPath>
				<rect x="45.9" class="st7" width="81" height="132.9"/>
			</g>
		</g>
		<g>
			<g>
				
					<linearGradient id="SVGID_12_" gradientUnits="userSpaceOnUse" x1="86.4" y1="505.8865" x2="86.4" y2="649.6976" gradientTransform="matrix(1 0 0 -1 0 626)">
					<stop  offset="0" style="stop-color:#F1A399"/>
					<stop  offset="1" style="stop-color:#EF877F"/>
				</linearGradient>
				<path id="SVGID_9_" class="st8" d="M75.1,14.6c0,8.1-6.5,14.6-14.6,14.6c20.5,0,37.3,16.7,37.3,37.3c0,20.5-16.7,37.3-37.3,37.3
					c-8.1,0-14.6,6.5-14.6,14.6S52.4,133,60.5,133c36.6,0,66.4-29.8,66.4-66.4S97.1,0.2,60.5,0.2C68.6,0,75.1,6.5,75.1,14.6"/>
			</g>
			<g>
				<defs>
					<path id="SVGID_13_" d="M75.1,14.6c0,8.1-6.5,14.6-14.6,14.6c20.5,0,37.3,16.7,37.3,37.3c0,20.5-16.7,37.3-37.3,37.3
						c-8.1,0-14.6,6.5-14.6,14.6S52.4,133,60.5,133c36.6,0,66.4-29.8,66.4-66.4S97.1,0.2,60.5,0.2C68.6,0,75.1,6.5,75.1,14.6"/>
				</defs>
				<clipPath id="SVGID_14_">
					<use xlink:href="#SVGID_13_"  style="overflow:visible;"/>
				</clipPath>
				
					<linearGradient id="SVGID_15_" gradientUnits="userSpaceOnUse" x1="86.4" y1="505.8865" x2="86.4" y2="649.6976" gradientTransform="matrix(1 0 0 -1 0 626)">
					<stop  offset="0" style="stop-color:#F1A399"/>
					<stop  offset="1" style="stop-color:#EF877F"/>
				</linearGradient>
				<rect x="45.9" class="st9" width="81" height="132.9"/>
			</g>
		</g>
	</g>
</g>
</svg>
